<svg width="375" height="176" viewBox="0 0 375 176" fill="none" xmlns="http://www.w3.org/2000/svg">
<g clip-path="url(#clip0_1890_4390)">
<path d="M-18 -1H357V173H-18V-1Z" fill="#00428C"/>
<g filter="url(#filter0_d_1890_4390)">
<path d="M20.5044 137.004C-21.1574 139.437 -49.4753 129.015 -80 100.014V176H260.598H396V74.4054C363.673 22.5788 320.854 -1.26629 260.598 -0.997758C200.821 -0.731356 126.592 74.4054 126.592 74.4054C126.592 74.4054 68.2983 134.213 20.5044 137.004Z" fill="#4D7BAF"/>
</g>
<g filter="url(#filter1_d_1890_4390)">
<path d="M59.2727 140.818C13.1472 143.512 -18.2048 131.971 -52 99.8573V184H325.091H475V71.4997C439.209 14.1099 391.802 -12.2949 325.091 -11.9975C258.908 -11.7025 176.727 71.4997 176.727 71.4997C176.727 71.4997 112.187 137.728 59.2727 140.818Z" fill="#80A1C6"/>
</g>
<g filter="url(#filter2_d_1890_4390)">
<path d="M70.4633 156.412C19.699 159.381 -14.806 146.662 -52 111.271V204H363.015H528V80.0201C488.609 16.7742 436.435 -12.325 363.015 -11.9973C290.176 -11.6722 199.73 80.0201 199.73 80.0201C199.73 80.0201 128.7 153.006 70.4633 156.412Z" fill="#EDF2F8"/>
</g>
</g>
<defs>
<filter id="filter0_d_1890_4390" x="-86" y="-7" width="484" height="185" filterUnits="userSpaceOnUse" color-interpolation-filters="sRGB">
<feFlood flood-opacity="0" result="BackgroundImageFix"/>
<feColorMatrix in="SourceAlpha" type="matrix" values="0 0 0 0 0 0 0 0 0 0 0 0 0 0 0 0 0 0 127 0" result="hardAlpha"/>
<feOffset dx="-2" dy="-2"/>
<feGaussianBlur stdDeviation="2"/>
<feComposite in2="hardAlpha" operator="out"/>
<feColorMatrix type="matrix" values="0 0 0 0 0 0 0 0 0 0 0 0 0 0 0 0 0 0 0.25 0"/>
<feBlend mode="normal" in2="BackgroundImageFix" result="effect1_dropShadow_1890_4390"/>
<feBlend mode="normal" in="SourceGraphic" in2="effect1_dropShadow_1890_4390" result="shape"/>
</filter>
<filter id="filter1_d_1890_4390" x="-58" y="-18" width="535" height="204" filterUnits="userSpaceOnUse" color-interpolation-filters="sRGB">
<feFlood flood-opacity="0" result="BackgroundImageFix"/>
<feColorMatrix in="SourceAlpha" type="matrix" values="0 0 0 0 0 0 0 0 0 0 0 0 0 0 0 0 0 0 127 0" result="hardAlpha"/>
<feOffset dx="-2" dy="-2"/>
<feGaussianBlur stdDeviation="2"/>
<feComposite in2="hardAlpha" operator="out"/>
<feColorMatrix type="matrix" values="0 0 0 0 0 0 0 0 0 0 0 0 0 0 0 0 0 0 0.25 0"/>
<feBlend mode="normal" in2="BackgroundImageFix" result="effect1_dropShadow_1890_4390"/>
<feBlend mode="normal" in="SourceGraphic" in2="effect1_dropShadow_1890_4390" result="shape"/>
</filter>
<filter id="filter2_d_1890_4390" x="-58" y="-18" width="588" height="224" filterUnits="userSpaceOnUse" color-interpolation-filters="sRGB">
<feFlood flood-opacity="0" result="BackgroundImageFix"/>
<feColorMatrix in="SourceAlpha" type="matrix" values="0 0 0 0 0 0 0 0 0 0 0 0 0 0 0 0 0 0 127 0" result="hardAlpha"/>
<feOffset dx="-2" dy="-2"/>
<feGaussianBlur stdDeviation="2"/>
<feComposite in2="hardAlpha" operator="out"/>
<feColorMatrix type="matrix" values="0 0 0 0 0 0 0 0 0 0 0 0 0 0 0 0 0 0 0.25 0"/>
<feBlend mode="normal" in2="BackgroundImageFix" result="effect1_dropShadow_1890_4390"/>
<feBlend mode="normal" in="SourceGraphic" in2="effect1_dropShadow_1890_4390" result="shape"/>
</filter>
<clipPath id="clip0_1890_4390">
<rect width="476" height="177" fill="white" transform="translate(-80 -1)"/>
</clipPath>
</defs>
</svg>
